# xmcd
# 
# Track frame offsets:
#     150
#     34522
#     63279
#     77359
#     101919
#     127424
#     164064
#     216859
#     254209
#     297611
#     329064
# 
# Disc length: 4623
# 
# Revision: 1
# Processed by: cddbd v1.5.2PL0 Copyright (c) Steve Scherf et al.
# Submitted via: fre:ac v1.0.31
# 
DISCID=b6120d0b
DTITLE=Various Artist - 08 - Paul Chambers Quintet
DYEAR=1957
DGENRE=Jazz
TTITLE0=Paul Chambers Quintet - Minor Run-Down
TTITLE1=Paul Chambers Quintet - The hand of love
TTITLE2=Paul Chambers Quintet - Softly as in the morning sunrise
TTITLE3=Paul Chambers Quintet - Four strings
TTITLE4=Paul Chambers Quintet - What's new
TTITLE5=Paul Chambers Quintet - Beauteous
TTITLE6=Clifford Jordan - Not guilty
TTITLE7=Clifford Jordan - St. John
TTITLE8=Clifford Jordan - C.Fuller - Blue shoes
TTITLE9=Clifford Jordan - Beyond the blue horizon
TTITLE10=Clifford Jordan - Ju-Ba
EXTD=YEAR: 1957
EXTT0=
EXTT1=
EXTT2=
EXTT3=
EXTT4=
EXTT5=
EXTT6=
EXTT7=
EXTT8=
EXTT9=
EXTT10=
PLAYORDER=
